<svg id="Layer_1" data-name="Layer 1" xmlns="http://www.w3.org/2000/svg" viewBox="0 0 1179.91 147.24"><defs><style>.cls-1{fill:#fefefe;}</style></defs><path class="cls-1" d="M104.86,180,78.3,142.65a84.79,84.79,0,0,1-9.3.49H37.79V180H25.51V63.8H69q22.25,0,34.86,10.62t12.62,29.22q0,13.6-6.89,23T89.92,140.16L118.3,180Zm-9.8-54.95q9.14-7.64,9.13-21.41,0-14.11-9.13-21.67T68.67,74.42H37.79v58.27H68.67Q85.94,132.69,95.06,125.05Z" transform="translate(-25.51 -33.75)"/><path class="cls-1" d="M227.7,169.37V180H145.53V63.8h79.68V74.42h-67.4v41.33H217.9v10.46H157.81v43.16Z" transform="translate(-25.51 -33.75)"/><path class="cls-1" d="M353.69,63.8V180H343.56l-74.7-94.29V180H256.58V63.8H266.7l74.87,94.28V63.8Z" transform="translate(-25.51 -33.75)"/><path class="cls-1" d="M473.71,169.37V180H391.53V63.8h79.68V74.42H403.82v41.33h60.09v10.46H403.82v43.16ZM443.49,33.75h15.77L432.37,54.33H420.75Z" transform="translate(-25.51 -33.75)"/><path class="cls-1" d="M568.65,74.42H527.82V63.8h93.95V74.42H580.94V180H568.65Z" transform="translate(-25.51 -33.75)"/><path class="cls-1" d="M659.21,173.27a56.34,56.34,0,0,1-21.92-21.16,58.67,58.67,0,0,1-7.88-30.21,58.7,58.7,0,0,1,7.88-30.22,56.41,56.41,0,0,1,21.92-21.16,67.24,67.24,0,0,1,62.41-.08A56.48,56.48,0,0,1,743.45,91.6a58.61,58.61,0,0,1,8,30.3,58.57,58.57,0,0,1-8,30.29,56.51,56.51,0,0,1-21.83,21.17,67.27,67.27,0,0,1-62.41-.09Zm56.19-9.46a45.1,45.1,0,0,0,17.43-17.26,48.86,48.86,0,0,0,6.31-24.65,48.84,48.84,0,0,0-6.31-24.65A45.13,45.13,0,0,0,715.4,80a53.13,53.13,0,0,0-49.89,0,45.47,45.47,0,0,0-17.59,17.27,48.29,48.29,0,0,0-6.39,24.65,48.32,48.32,0,0,0,6.39,24.65,45.45,45.45,0,0,0,17.59,17.26,53.05,53.05,0,0,0,49.89,0Z" transform="translate(-25.51 -33.75)"/><path class="cls-1" d="M858.32,180l-26.56-37.35a84.74,84.74,0,0,1-9.29.49H791.26V180H779V63.8h43.5q22.23,0,34.86,10.62t12.61,29.22q0,13.6-6.89,23t-19.67,13.53L871.77,180Zm-9.79-54.95q9.12-7.64,9.13-21.41,0-14.11-9.13-21.67t-26.4-7.55H791.26v58.27h30.87Q839.4,132.69,848.53,125.05Z" transform="translate(-25.51 -33.75)"/><path class="cls-1" d="M978.34,180l-26.56-37.35a84.79,84.79,0,0,1-9.3.49H911.27V180H899V63.8h43.49q22.24,0,34.86,10.62T990,103.64q0,13.6-6.89,23T963.4,140.16L991.78,180Zm-9.8-54.95q9.13-7.64,9.13-21.41,0-14.11-9.13-21.67t-26.39-7.55H911.27v58.27h30.88Q959.42,132.69,968.54,125.05Z" transform="translate(-25.51 -33.75)"/><path class="cls-1" d="M1101.18,169.37V180H1019V63.8h79.68V74.42h-67.4v41.33h60.09v10.46h-60.09v43.16Z" transform="translate(-25.51 -33.75)"/><path class="cls-1" d="M1137.28,176.84q-11.87-4.14-18.34-11l4.81-9.47q6.32,6.32,16.77,10.21a61.25,61.25,0,0,0,21.58,3.9q15.6,0,23.4-5.72t7.81-14.86q0-7-4.24-11.12a28.48,28.48,0,0,0-10.37-6.39,166.72,166.72,0,0,0-17.1-4.9,178.68,178.68,0,0,1-20.92-6.39,34.34,34.34,0,0,1-13.36-9.38q-5.57-6.3-5.56-17.1a29,29,0,0,1,4.65-16q4.63-7.22,14.27-11.53t23.91-4.32a70.17,70.17,0,0,1,19.5,2.74,56.1,56.1,0,0,1,16.52,7.55l-4.15,9.8a57,57,0,0,0-15.6-7.22,58.11,58.11,0,0,0-16.27-2.41q-15.28,0-23,5.89a18.27,18.27,0,0,0-7.72,15.19q0,7,4.23,11.2a27.69,27.69,0,0,0,10.62,6.48q6.39,2.24,17.19,4.9a171.52,171.52,0,0,1,20.66,6.22,34,34,0,0,1,13.37,9.3q5.47,6.23,5.47,16.85a28.54,28.54,0,0,1-4.73,16q-4.73,7.23-14.52,11.46T1162.1,181A74.57,74.57,0,0,1,1137.28,176.84Z" transform="translate(-25.51 -33.75)"/></svg>